HIERARCHY
ROOT hip
{
  OFFSET 0 0 0
  CHANNELS 6 Xposition Yposition Zposition Zrotation Yrotation Xrotation
  JOINT abdomen
  {
    OFFSET 0 20.6881 -0.73152
    CHANNELS 3 Zrotation Xrotation Yrotation
    JOINT chest
    {
      OFFSET 0 11.7043 -0.48768
      CHANNELS 3 Zrotation Xrotation Yrotation
      JOINT neck
      {
        OFFSET 0 22.1894 -2.19456
        CHANNELS 3 Zrotation Xrotation Yrotation
        JOINT head
        {
          OFFSET -0.24384 7.07133 1.2192
          CHANNELS 3 Zrotation Xrotation Yrotation
          JOINT leftEye
          {
            OFFSET 4.14528 8.04674 8.04672
            CHANNELS 3 Zrotation Xrotation Yrotation
            End Site
            {
              OFFSET 1 0 0
            }
          }
          JOINT rightEye
          {
            OFFSET -3.6576 8.04674 8.04672
            CHANNELS 3 Zrotation Xrotation Yrotation
            End Site
            {
              OFFSET 1 0 0
            }
          }
        }
      }
      JOINT rCollar
      {
        OFFSET -2.68224 19.2634 -4.8768
        CHANNELS 3 Zrotation Xrotation Yrotation
        JOINT rShldr
        {
          OFFSET -8.77824 -1.95073 1.46304
          CHANNELS 3 Zrotation Xrotation Yrotation
          JOINT rForeArm
          {
            OFFSET -28.1742 -1.7115 0.48768
            CHANNELS 3 Zrotation Xrotation Yrotation
            JOINT rHand
            {
              OFFSET -22.5879 0.773209 7.07136
              CHANNELS 3 Zrotation Xrotation Yrotation
              JOINT rThumb1
              {
                OFFSET -1.2192 -0.487915 3.41376
                CHANNELS 3 Zrotation Xrotation Yrotation
                JOINT rThumb2
                {
                  OFFSET -3.37035 -0.52449 3.41376
                  CHANNELS 3 Zrotation Xrotation Yrotation
                  End Site
                  {
                    OFFSET -1.78271 -1.18214 1.43049
                  }
                }
              }
              JOINT rIndex1
              {
                OFFSET -7.75947 0.938293 5.60832
                CHANNELS 3 Zrotation Xrotation Yrotation
                JOINT rIndex2
                {
                  OFFSET -2.54057 -0.884171 1.56538
                  CHANNELS 3 Zrotation Xrotation Yrotation
                  End Site
                  {
                    OFFSET -1.62519 -0.234802 1.16502
                  }
                }
              }
              JOINT rMid1
              {
                OFFSET -8.24714 1.18213 3.41376
                CHANNELS 3 Zrotation Xrotation Yrotation
                JOINT rMid2
                {
                  OFFSET -3.10165 -0.590103 1.0647
                  CHANNELS 3 Zrotation Xrotation Yrotation
                  End Site
                  {
                    OFFSET -2.48547 -0.328903 0.83742
                  }
                }
              }
              JOINT rRing1
              {
                OFFSET -8.82822 0.546677 1.51678
                CHANNELS 3 Zrotation Xrotation Yrotation
                JOINT rRing2
                {
                  OFFSET -2.60934 -0.819778 -0.0198488
                  CHANNELS 3 Zrotation Xrotation Yrotation
                  End Site
                  {
                    OFFSET -2.33842 -0.294052 0.168128
                  }
                }
              }
              JOINT rPinky1
              {
                OFFSET -8.27202 -0.0477905 -0.4584
                CHANNELS 3 Zrotation Xrotation Yrotation
                JOINT rPinky2
                {
                  OFFSET -1.82734 -0.647385 -0.700984
                  CHANNELS 3 Zrotation Xrotation Yrotation
                  End Site
                  {
                    OFFSET -1.69225 -0.51767 -0.607171
                  }
                }
              }
            }
          }
        }
      }
      JOINT lCollar
      {
        OFFSET 2.68224 19.2634 -4.8768
        CHANNELS 3 Zrotation Xrotation Yrotation
        JOINT lShldr
        {
          OFFSET 8.77824 -1.95073 1.46304
          CHANNELS 3 Zrotation Xrotation Yrotation
          JOINT lForeArm
          {
            OFFSET 28.1742 -1.7115 0.48768
            CHANNELS 3 Zrotation Xrotation Yrotation
            JOINT lHand
            {
              OFFSET 22.5879 0.773209 7.07136
              CHANNELS 3 Zrotation Xrotation Yrotation
              JOINT lThumb1
              {
                OFFSET 1.2192 -0.487915 3.41376
                CHANNELS 3 Zrotation Xrotation Yrotation
                JOINT lThumb2
                {
                  OFFSET 3.37035 -0.52449 3.41376
                  CHANNELS 3 Zrotation Xrotation Yrotation
                  End Site
                  {
                    OFFSET 1.78271 -1.18214 1.43049
                  }
                }
              }
              JOINT lIndex1
              {
                OFFSET 7.75947 0.938293 5.60832
                CHANNELS 3 Zrotation Xrotation Yrotation
                JOINT lIndex2
                {
                  OFFSET 2.54057 -0.884171 1.56538
                  CHANNELS 3 Zrotation Xrotation Yrotation
                  End Site
                  {
                    OFFSET 1.62519 -0.234802 1.16502
                  }
                }
              }
              JOINT lMid1
              {
                OFFSET 8.24714 1.18213 3.41376
                CHANNELS 3 Zrotation Xrotation Yrotation
                JOINT lMid2
                {
                  OFFSET 3.10165 -0.590103 1.0647
                  CHANNELS 3 Zrotation Xrotation Yrotation
                  End Site
                  {
                    OFFSET 2.48547 -0.328903 0.83742
                  }
                }
              }
              JOINT lRing1
              {
                OFFSET 8.82822 0.546677 1.51678
                CHANNELS 3 Zrotation Xrotation Yrotation
                JOINT lRing2
                {
                  OFFSET 2.60934 -0.819778 -0.0198488
                  CHANNELS 3 Zrotation Xrotation Yrotation
                  End Site
                  {
                    OFFSET 2.33842 -0.294052 0.168128
                  }
                }
              }
              JOINT lPinky1
              {
                OFFSET 8.27202 -0.0477905 -0.4584
                CHANNELS 3 Zrotation Xrotation Yrotation
                JOINT lPinky2
                {
                  OFFSET 1.82734 -0.647385 -0.700984
                  CHANNELS 3 Zrotation Xrotation Yrotation
                  End Site
                  {
                    OFFSET 1.69225 -0.51767 -0.607171
                  }
                }
              }
            }
          }
        }
      }
    }
  }
  JOINT rButtock
  {
    OFFSET -8.77824 4.35084 1.2192
    CHANNELS 3 Zrotation Xrotation Yrotation
    JOINT rThigh
    {
      OFFSET 0 -1.70687 -2.19456
      CHANNELS 3 Zrotation Xrotation Yrotation
      JOINT rShin
      {
        OFFSET 0 -36.8199 0.73152
        CHANNELS 3 Zrotation Xrotation Yrotation
        JOINT rFoot
        {
          OFFSET 0.73152 -45.1104 -5.12064
          CHANNELS 3 Zrotation Xrotation Yrotation
          End Site
          {
            OFFSET -1.1221 -3.69964 12.103
          }
        }
      }
    }
  }
  JOINT lButtock
  {
    OFFSET 8.77824 4.35084 1.2192
    CHANNELS 3 Zrotation Xrotation Yrotation
    JOINT lThigh
    {
      OFFSET 0 -1.70687 -2.19456
      CHANNELS 3 Zrotation Xrotation Yrotation
      JOINT lShin
      {
        OFFSET 0 -36.8199 0.73152
        CHANNELS 3 Zrotation Xrotation Yrotation
        JOINT lFoot
        {
          OFFSET -0.73152 -45.1104 -5.12064
          CHANNELS 3 Zrotation Xrotation Yrotation
          End Site
          {
            OFFSET 1.1221 -3.69964 12.103
          }
        }
      }
    }
  }
}
MOTION
Frames:	8
Frame Time:	0.00833333
59.356 82.5122 20.0784 176.701 0.3969 -161.01 -2.9903 -15.58 1.29101 4.22597 14.0898 -0.295331 -1.53367 12.2387 -0.909574 4.54118 -3.65174 -4.36293 -0.0 0.0 0.0 -0.0 0.0 0.0 -1.1043e-14 -7.95154e-14 3.56818e-14 79.7484 13.9387 4.14485 -18.1381 -10.8358 34.3305 -0.0122273 -3.15546 -0.443924 -1.44004e-09 3.14511e-09 -1.49206e-10 -2.49462e-09 5.44633e-09 -2.5932e-10 -1.44004e-09 3.14512e-09 -1.49203e-10 7.73091 5.47488 0.417314 -1.44004e-09 3.14511e-09 -1.49206e-10 2.90554 0.965183 0.102902 -1.44004e-09 3.14511e-09 -1.49201e-10 10.2786 0.731801 0.0259123 -1.44005e-09 3.14512e-09 -1.49193e-10 2.22167 -0.733487 -0.20892 -1.10228e-14 -7.95127e-14 3.54831e-14 -77.4449 20.1786 0.174962 13.1319 -6.27489 -23.8233 0.0518681 6.48558 -0.915441 -3.6013e-10 1.0092e-09 1.65389e-09 -6.11923e-10 1.75061e-09 2.86397e-09 -3.60138e-10 1.0092e-09 1.65389e-09 -7.73091 5.47488 -0.417314 -3.60131e-10 1.00919e-09 1.65389e-09 -2.90554 0.965183 -0.102902 -3.60137e-10 1.00919e-09 1.65389e-09 -10.2786 0.731801 -0.0259123 -3.60119e-10 1.0092e-09 1.65388e-09 -2.22167 -0.733487 0.20892 -2.03217e-16 0.0 -3.88251e-19 6.87192 -28.6794 7.97199 0.109014 19.8814 1.22033 -3.92782 -17.9445 -10.2167 2.03217e-16 0.0 3.88251e-19 -1.69698 -85.8518 -1.93927 6.15946 81.8668 -7.02119 2.88086 -9.4154 7.97434
59.3631 82.5484 19.705 176.741 0.4626 -160.968 -3.18246 -15.518 1.43144 4.16763 14.0644 -0.238032 -1.54417 12.2754 -0.912954 4.5564 -3.68896 -4.36143 -0.0 0.0 0.0 -0.0 0.0 0.0 -6.32497e-15 -9.57903e-14 2.73247e-14 79.7268 14.2763 4.32275 -18.1675 -10.8679 34.3969 -0.0126796 -3.21541 -0.452374 -1.13913e-09 2.43438e-09 -1.24477e-10 -1.97358e-09 4.21626e-09 -2.16274e-10 -1.13912e-09 2.43438e-09 -1.24476e-10 7.73091 5.47488 0.417314 -1.13913e-09 2.43438e-09 -1.24477e-10 2.90554 0.965183 0.102902 -1.13912e-09 2.43438e-09 -1.24473e-10 10.2786 0.731801 0.0259123 -1.13914e-09 2.43438e-09 -1.24467e-10 2.22167 -0.733487 -0.20892 -6.35963e-15 -9.5789e-14 2.70914e-14 -77.364 20.1718 0.193813 13.0927 -6.2453 -23.7456 0.0520003 6.49359 -0.916582 -1.32642e-10 8.51003e-10 1.27389e-09 -2.21339e-10 1.47624e-09 2.20527e-09 -1.32649e-10 8.51001e-10 1.2739e-09 -7.73091 5.47488 -0.417314 -1.32643e-10 8.50997e-10 1.27389e-09 -2.90554 0.965183 -0.102902 -1.32651e-10 8.50996e-10 1.27389e-09 -10.2786 0.731801 -0.0259123 -1.32633e-10 8.50998e-10 1.27388e-09 -2.22167 -0.733487 0.20892 -2.03217e-16 0.0 -3.88251e-19 6.68327 -28.3127 7.87871 0.111776 19.7536 1.24325 -3.96214 -18.1129 -10.2033 2.03217e-16 0.0 3.88251e-19 -1.35457 -85.9808 -1.5767 5.08272 80.4411 -5.94345 2.7942 -9.31405 7.73754
59.3595 82.5838 19.2955 176.722 0.5424 -161.016 -3.35028 -15.4489 1.60503 4.08191 14.0356 -0.163387 -1.58757 12.2729 -0.932309 4.63645 -3.61366 -4.40846 -0.0 0.0 0.0 -0.0 0.0 0.0 -6.71712e-15 -1.87454e-13 1.1309e-14 79.7489 14.616 4.44539 -18.2071 -10.9111 34.4864 -0.0133721 -3.30296 -0.464719 -2.00482e-10 3.05133e-10 1.79075e-10 -3.48559e-10 5.32645e-10 3.10226e-10 -2.00479e-10 3.05133e-10 1.79069e-10 7.73091 5.47488 0.417314 -2.00484e-10 3.05132e-10 1.79072e-10 2.90554 0.965183 0.102902 -2.00474e-10 3.05132e-10 1.79075e-10 10.2786 0.731801 0.0259123 -2.00487e-10 3.05133e-10 1.7908e-10 2.22167 -0.733487 -0.20892 -6.81932e-15 -1.87455e-13 1.10201e-14 -77.2408 20.2406 0.194953 13.0343 -6.2012 -23.6301 0.0519477 6.49015 -0.916092 5.65128e-10 2.36885e-10 -9.18509e-11 9.75587e-10 4.11459e-10 -1.61141e-10 5.65122e-10 2.36885e-10 -9.18371e-11 -7.73091 5.47488 -0.417314 5.65127e-10 2.36882e-10 -9.18469e-11 -2.90554 0.965183 -0.102902 5.65117e-10 2.36882e-10 -9.18461e-11 -10.2786 0.731801 -0.0259123 5.65134e-10 2.36884e-10 -9.18547e-11 -2.22167 -0.733487 0.20892 -2.03217e-16 0.0 -3.88251e-19 6.49155 -27.9534 7.757 0.113726 19.6423 1.26129 -3.97959 -18.2696 -10.1423 2.03217e-16 0.0 3.88251e-19 -0.612976 -86.0011 -0.822444 4.25526 78.932 -5.10873 2.65723 -9.17322 7.35259
59.3348 82.622 18.8588 176.601 0.6208 -161.125 -3.50783 -15.3829 1.77629 3.99039 14.0057 -0.0876765 -1.63637 12.2504 -0.956042 4.72377 -3.48202 -4.47415 -0.0 0.0 0.0 -0.0 0.0 0.0 -1.20771e-14 -2.74446e-13 -4.82014e-15 79.7836 14.9712 4.54412 -18.2535 -10.9618 34.5915 -0.0141019 -3.39046 -0.47706 8.07809e-10 -1.88086e-09 5.22402e-10 1.39685e-09 -3.24908e-09 9.05625e-10 8.07812e-10 -1.88086e-09 5.2239e-10 7.73091 5.47488 0.417314 8.07809e-10 -1.88086e-09 5.22397e-10 2.90554 0.965183 0.102902 8.0782e-10 -1.88086e-09 5.22398e-10 10.2786 0.731801 0.0259123 8.07809e-10 -1.88086e-09 5.22401e-10 2.22167 -0.733487 -0.20892 -1.22414e-14 -2.74449e-13 -5.16918e-15 -77.1141 20.3145 0.197787 12.972 -6.15428 -23.5076 0.0519493 6.49027 -0.916109 1.28889e-09 -3.8604e-10 -1.46035e-09 2.21744e-09 -6.68724e-10 -2.53259e-09 1.28889e-09 -3.86039e-10 -1.46033e-09 -7.73091 5.47488 -0.417314 1.28889e-09 -3.86041e-10 -1.46034e-09 -2.90554 0.965183 -0.102902 1.28888e-09 -3.8604e-10 -1.46034e-09 -10.2786 0.731801 -0.0259123 1.28889e-09 -3.86038e-10 -1.46035e-09 -2.22167 -0.733487 0.20892 -2.03217e-16 0.0 -3.88251e-19 6.30633 -27.5981 7.63345 0.115339 19.5341 1.27567 -3.9931 -18.423 -10.0729 2.03217e-16 0.0 3.88251e-19 0.132967 -85.9573 -0.0711975 3.63142 77.4217 -4.47466 2.50151 -8.99461 6.9139
59.3197 82.6562 18.4367 176.535 0.646 -161.152 -3.6689 -15.3304 1.90976 3.91461 13.9769 -0.0271673 -1.66311 12.227 -0.972564 4.76052 -3.35022 -4.52865 -0.0 0.0 0.0 -0.0 0.0 0.0 -2.22626e-14 -2.76707e-13 -1.35174e-14 79.799 15.3546 4.65054 -18.3034 -11.0166 34.7044 -0.0146223 -3.45025 -0.485494 1.31767e-09 -2.76184e-09 6.66457e-10 2.27906e-09 -4.77349e-09 1.15537e-09 1.31767e-09 -2.76184e-09 6.66441e-10 7.73091 5.47488 0.417314 1.31767e-09 -2.76184e-09 6.6645e-10 2.90554 0.965183 0.102902 1.31768e-09 -2.76184e-09 6.6645e-10 10.2786 0.731801 0.0259123 1.31767e-09 -2.76184e-09 6.66453e-10 2.22167 -0.733487 -0.20892 -2.24654e-14 -2.7671e-13 -1.39149e-14 -77.0225 20.3236 0.221734 12.9216 -6.11634 -23.4085 0.0522444 6.50895 -0.918769 1.59436e-09 -5.70661e-10 -1.84864e-09 2.74279e-09 -9.89296e-10 -3.20643e-09 1.59436e-09 -5.70659e-10 -1.84862e-09 -7.73091 5.47488 -0.417314 1.59436e-09 -5.7066e-10 -1.84863e-09 -2.90554 0.965183 -0.102902 1.59435e-09 -5.70659e-10 -1.84863e-09 -10.2786 0.731801 -0.0259123 1.59436e-09 -5.70657e-10 -1.84863e-09 -2.22167 -0.733487 0.20892 -2.03217e-16 0.0 -3.88251e-19 6.13647 -27.2431 7.53434 0.117118 19.4158 1.28757 -4.01603 -18.5816 -10.0347 2.03217e-16 0.0 3.88251e-19 0.517723 -85.8954 0.311587 3.16587 75.992 -3.99924 2.35767 -8.78043 6.51578
59.3077 82.6661 18.0655 176.493 0.6777 -161.085 -3.83564 -15.2976 1.98637 3.86055 13.9448 0.0107426 -1.65763 12.2079 -0.980046 4.72146 -3.21879 -4.57119 -0.0 0.0 0.0 -0.0 0.0 0.0 -4.41645e-14 -1.30799e-13 -1.13633e-14 79.7888 15.7816 4.76449 -18.3613 -11.0806 34.8353 -0.0147377 -3.46249 -0.487221 1.04169e-09 -1.46493e-09 4.9013e-10 1.80009e-09 -2.53071e-09 8.4933e-10 1.0417e-09 -1.46493e-09 4.90114e-10 7.73091 5.47488 0.417314 1.04169e-09 -1.46493e-09 4.90124e-10 2.90554 0.965183 0.102902 1.0417e-09 -1.46493e-09 4.90124e-10 10.2786 0.731801 0.0259123 1.0417e-09 -1.46493e-09 4.90127e-10 2.22167 -0.733487 -0.20892 -4.4369e-14 -1.30802e-13 -1.18044e-14 -76.9832 20.2421 0.284921 12.8897 -6.09236 -23.3457 0.0528839 6.54842 -0.924389 1.22964e-09 1.51665e-11 -5.38967e-10 2.12098e-09 2.52289e-11 -9.40011e-10 1.22964e-09 1.51695e-11 -5.38948e-10 -7.73091 5.47488 -0.417314 1.22964e-09 1.51688e-11 -5.38958e-10 -2.90554 0.965183 -0.102902 1.22963e-09 1.51704e-11 -5.38959e-10 -10.2786 0.731801 -0.0259123 1.22964e-09 1.51721e-11 -5.38965e-10 -2.22167 -0.733487 0.20892 -2.03217e-16 0.0 -3.88251e-19 5.98477 -26.8857 7.47113 0.119306 19.2769 1.29719 -4.0513 -18.7585 -10.0312 2.03217e-16 0.0 3.88251e-19 0.468184 -85.8226 0.249568 2.80663 74.6464 -3.63137 2.23435 -8.56233 6.17544
59.2897 82.6683 17.6851 176.431 0.7369 -161.058 -4.00096 -15.2779 2.0283 3.81662 13.9099 0.0357561 -1.63553 12.1829 -0.98425 4.64084 -3.0626 -4.61531 -0.0 0.0 0.0 -0.0 0.0 0.0 -7.5549e-14 1.06549e-13 -2.85132e-15 79.7693 16.2414 4.87213 -18.4269 -11.1535 34.9844 -0.0146033 -3.44609 -0.484908 3.28164e-10 1.11368e-09 1.40036e-10 5.63078e-10 1.92911e-09 2.41795e-10 3.28167e-10 1.11368e-09 1.40021e-10 7.73091 5.47488 0.417314 3.28163e-10 1.11368e-09 1.40029e-10 2.90554 0.965183 0.102902 3.28172e-10 1.11368e-09 1.40031e-10 10.2786 0.731801 0.0259123 3.28166e-10 1.11368e-09 1.40035e-10 2.22167 -0.733487 -0.20892 -7.57311e-14 1.06547e-13 -3.33586e-15 -76.973 20.1097 0.372556 12.8671 -6.07549 -23.3013 0.0537547 6.60127 -0.931917 4.76165e-10 1.06201e-09 1.79253e-09 8.33986e-10 1.83857e-09 3.0957e-09 4.76163e-10 1.06202e-09 1.79255e-09 -7.73091 5.47488 -0.417314 4.76168e-10 1.06202e-09 1.79254e-09 -2.90554 0.965183 -0.102902 4.76158e-10 1.06202e-09 1.79254e-09 -10.2786 0.731801 -0.0259123 4.76164e-10 1.06202e-09 1.79253e-09 -2.22167 -0.733487 0.20892 -2.03217e-16 0.0 -3.88251e-19 5.84565 -26.5284 7.42797 0.121573 19.1268 1.30394 -4.09228 -18.9455 -10.0438 2.03217e-16 0.0 3.88251e-19 0.180515 -85.7162 -0.0600707 2.51639 73.3481 -3.33193 2.11559 -8.32881 5.84534
59.2722 82.6831 17.2359 176.385 0.77 -161.144 -4.16469 -15.2625 2.06201 3.77795 13.8818 0.0572642 -1.60791 12.1479 -0.984973 4.54954 -2.89927 -4.65258 -0.0 0.0 0.0 -0.0 0.0 0.0 -1.02587e-13 3.35151e-13 7.69514e-15 79.7412 16.7076 4.98475 -18.49 -11.2237 35.1285 -0.0144772 -3.4315 -0.48285 -4.37476e-10 3.68217e-09 -2.2129e-10 -7.6386e-10 6.37136e-09 -3.85159e-10 -4.37473e-10 3.68217e-09 -2.21304e-10 7.73091 5.47488 0.417314 -4.37477e-10 3.68217e-09 -2.21297e-10 2.90554 0.965183 0.102902 -4.37471e-10 3.68217e-09 -2.21294e-10 10.2786 0.731801 0.0259123 -4.37476e-10 3.68217e-09 -2.21289e-10 2.22167 -0.733487 -0.20892 -1.02743e-13 3.3515e-13 7.18576e-15 -76.9699 19.9544 0.454743 12.846 -6.05984 -23.2598 0.0548579 6.66806 -0.941433 -3.1039e-10 2.05462e-09 4.03803e-09 -5.10695e-10 3.5581e-09 6.98301e-09 -3.10391e-10 2.05463e-09 4.03805e-09 -7.73091 5.47488 -0.417314 -3.10386e-10 2.05463e-09 4.03804e-09 -2.90554 0.965183 -0.102902 -3.10393e-10 2.05463e-09 4.03804e-09 -10.2786 0.731801 -0.0259123 -3.10391e-10 2.05463e-09 4.03803e-09 -2.22167 -0.733487 0.20892 -2.03217e-16 0.0 -3.88251e-19 5.71513 -26.1761 7.39006 0.123569 18.9818 1.30786 -4.13832 -19.1193 -10.0787 2.03217e-16 0.0 3.88251e-19 -0.264787 -85.578 -0.530488 2.28152 72.1183 -3.08675 1.99505 -8.01768 5.52267
